# File created by Blade
# Date/Time:  Wed Sep 24 20:15:16 2014
# Frame Rate: 120.000 fps
#------------------------------------------------------
:FULLY-SPECIFIED
:DEGREES
3671
root -6.072015 32.720734 -4.443201 15.583406 -7.447305 -3.463881
Spine -22.486512 -6.008461 6.739963
Head 13.894734 -3.257441 5.853703
LeftShoulder -8.238990 20.623409 10.119335
LeftArm 20.306058 24.923110 -75.809689
LeftForeArm -4.237858 -0.000000 19.852169
LeftHand -22.184177 -0.000000 -4.232966
LeftHandThumb1 -26.253704 0.000000 33.147579
RightShoulder -26.421115 11.014130 -14.073601
RightArm -44.764787 56.348552 48.780146
RightForeArm 45.372025 0.000000 120.626047
RightHand -7.170955 -0.000000 -55.800878
RightHandThumb1 -24.326973 -0.000000 -32.862282
LeftUpLeg -9.413186 12.785443 4.148294
LeftLeg 0.738701 -0.000000 -0.000000
LeftFoot -15.798828 10.905283 -19.139455
LeftToeBase 9.503357 -0.000000 -0.000000
RightUpLeg -13.261277 -0.695913 -1.407176
RightLeg 3.274455 -0.000000 -0.000000
RightFoot -9.267083 1.950081 -12.817463
RightToeBase -1.245451 -0.000000 0.000000
3672
root -6.073861 32.719601 -4.437517 15.545481 -7.441360 -3.460110
Spine -22.443373 -6.004973 6.757973
Head 13.922149 -3.300349 5.914002
LeftShoulder -8.336415 20.569216 10.063193
LeftArm 20.345688 24.939182 -75.750036
LeftForeArm -4.286524 -0.000000 19.954493
LeftHand -22.154097 -0.000000 -4.208680
LeftHandThumb1 -26.253704 0.000000 33.147579
RightShoulder -26.479161 11.039022 -14.087554
RightArm -44.578318 56.282576 48.948984
RightForeArm 45.386283 -0.000000 120.672117
RightHand -7.073684 -0.000000 -55.829862
RightHandThumb1 -24.326973 -0.000000 -32.862282
LeftUpLeg -9.371909 12.794815 4.154116
LeftLeg 0.749059 -0.000000 -0.000000
LeftFoot -15.825348 10.907368 -19.078911
LeftToeBase 9.577744 -0.000000 -0.000000
RightUpLeg -13.218770 -0.660895 -1.415945
RightLeg 3.290646 -0.000000 -0.000000
RightFoot -9.284124 1.894555 -12.845533
RightToeBase -1.268345 -0.000000 0.000000
3673
root -6.074259 32.718475 -4.431185 15.509673 -7.448038 -3.447204
Spine -22.403637 -5.974066 6.747713
Head 13.949489 -3.382222 5.979040
LeftShoulder -8.441420 20.556813 10.004957
LeftArm 20.449132 24.996037 -75.648124
LeftForeArm -4.341852 -0.000000 20.040750
LeftHand -22.121842 0.000000 -4.045113
LeftHandThumb1 -26.253704 0.000000 33.147579
RightShoulder -26.522005 11.062645 -14.117500
RightArm -44.471388 56.175212 49.078681
RightForeArm 45.414008 -0.000000 120.704499
RightHand -7.058974 -0.000000 -55.768707
RightHandThumb1 -24.326973 -0.000000 -32.862282
LeftUpLeg -9.328963 12.789748 4.148937
LeftLeg 0.763709 -0.000000 -0.000000
LeftFoot -15.847143 10.914324 -19.053601
LeftToeBase 9.657774 -0.000000 -0.000000
RightUpLeg -13.177177 -0.639680 -1.434993
RightLeg 3.297905 -0.000000 -0.000000
RightFoot -9.313591 1.876449 -12.853179
RightToeBase -1.222279 -0.000000 0.000000
3674
root -6.076677 32.717330 -4.425969 15.479357 -7.444611 -3.445839
Spine -22.363733 -5.960916 6.753582
Head 13.974135 -3.483309 6.039581
LeftShoulder -8.541038 20.507234 9.959258
LeftArm 20.481342 24.966962 -75.624806
LeftForeArm -4.295622 -0.000000 20.128800
LeftHand -22.231396 0.000000 -4.019720
LeftHandThumb1 -26.253704 0.000000 33.147579
RightShoulder -26.550739 11.098051 -14.137422
RightArm -44.388020 56.120258 49.167632
RightForeArm 45.465042 -0.000000 120.735828
RightHand -6.930885 -0.000000 -55.958836
RightHandThumb1 -24.326973 -0.000000 -32.862282
LeftUpLeg -9.298631 12.774658 4.161331
LeftLeg 0.786901 -0.000000 -0.000000
LeftFoot -15.862682 10.922080 -19.050620
LeftToeBase 9.621383 -0.000000 -0.000000
RightUpLeg -13.144879 -0.635109 -1.432698
RightLeg 3.317374 -0.000000 -0.000000
RightFoot -9.341156 1.857405 -12.877850
RightToeBase -1.235526 -0.000000 0.000000
3675
root -6.079125 32.716841 -4.420667 15.447026 -7.454887 -3.441631
Spine -22.318042 -5.908574 6.731490
Head 14.012877 -3.627554 6.127863
LeftShoulder -8.617012 20.515621 9.919062
LeftArm 20.574921 24.889370 -75.593366
LeftForeArm -4.240905 -0.000000 20.193985
LeftHand -22.298060 -0.000000 -3.951458
LeftHandThumb1 -26.253704 0.000000 33.147579
RightShoulder -26.600395 11.160134 -14.136462
RightArm -44.369076 56.052110 49.177899
RightForeArm 45.608532 0.000000 120.788558
RightHand -6.974956 -0.000000 -55.856458
RightHandThumb1 -24.326973 -0.000000 -32.862282
LeftUpLeg -9.264331 12.743783 4.173829
LeftLeg 0.813339 -0.000000 -0.000000
LeftFoot -15.897664 10.953241 -19.063682
LeftToeBase 9.591075 -0.000000 -0.000000
RightUpLeg -13.102449 -0.619011 -1.436840
RightLeg 3.316080 -0.000000 -0.000000
RightFoot -9.357002 1.841188 -12.886393
RightToeBase -1.170699 -0.000000 0.000000
3676
root -6.081830 32.715942 -4.416499 15.424717 -7.460035 -3.444647
Spine -22.282032 -5.871347 6.724335
Head 14.047299 -3.760012 6.219150
LeftShoulder -8.694286 20.495554 9.885757
LeftArm 20.611531 24.798694 -75.597600
LeftForeArm -4.182860 -0.000000 20.271647
LeftHand -22.476128 -0.000000 -3.650222
LeftHandThumb1 -26.253704 0.000000 33.147579
RightShoulder -26.640100 11.170543 -14.108109
RightArm -44.213876 56.043977 49.296432
RightForeArm 45.644782 -0.000000 120.847774
RightHand -7.133707 -0.000000 -55.739364
RightHandThumb1 -24.326973 -0.000000 -32.862282
LeftUpLeg -9.241449 12.703318 4.193942
LeftLeg 0.839265 -0.000000 -0.000000
LeftFoot -15.930998 10.975549 -19.101583
LeftToeBase 9.623243 -0.000000 -0.000000
RightUpLeg -13.074481 -0.636693 -1.427036
RightLeg 3.319361 -0.000000 -0.000000
RightFoot -9.376312 1.856622 -12.891826
RightToeBase -1.222439 -0.000000 0.000000
3677
root -6.084778 32.715486 -4.412769 15.411169 -7.480835 -3.449828
Spine -22.257170 -5.810016 6.706080
Head 14.093977 -3.880583 6.326657
LeftShoulder -8.742261 20.473314 9.876259
LeftArm 20.619613 24.696893 -75.629946
LeftForeArm -4.117464 -0.000000 20.360771
LeftHand -22.310972 -0.000000 -3.604147
LeftHandThumb1 -26.253704 0.000000 33.147579
RightShoulder -26.662185 11.205456 -14.102741
RightArm -44.158932 55.981486 49.346117
RightForeArm 45.684339 -0.000000 120.869535
RightHand -7.035625 -0.000000 -55.697842
RightHandThumb1 -24.326973 -0.000000 -32.862282
LeftUpLeg -9.227107 12.689619 4.208685
LeftLeg 0.868384 -0.000000 -0.000000
LeftFoot -15.962209 10.999174 -19.120559
LeftToeBase 9.578077 -0.000000 -0.000000
RightUpLeg -13.051245 -0.619088 -1.421653
RightLeg 3.311206 -0.000000 -0.000000
RightFoot -9.385371 1.857726 -12.911227
RightToeBase -1.198898 -0.000000 0.000000
3678
root -6.086241 32.714800 -4.408973 15.394016 -7.497589 -3.446204
Spine -22.225262 -5.760806 6.681188
Head 14.125333 -4.027866 6.420017
LeftShoulder -8.797290 20.464156 9.858066
LeftArm 20.646234 24.624041 -75.633763
LeftForeArm -4.092897 -0.000000 20.453306
LeftHand -22.477447 -0.000000 -3.401054
LeftHandThumb1 -26.253704 0.000000 33.147579
RightShoulder -26.677084 11.220430 -14.086613
RightArm -44.069276 55.955151 49.411244
RightForeArm 45.679821 -0.000000 120.849710
RightHand -6.951939 -0.000000 -55.794040
RightHandThumb1 -24.326973 -0.000000 -32.862282
LeftUpLeg -9.209911 12.665497 4.212574
LeftLeg 0.891944 -0.000000 -0.000000
LeftFoot -16.004735 11.037096 -19.150540
LeftToeBase 9.578343 -0.000000 -0.000000
RightUpLeg -13.031618 -0.631987 -1.421442
RightLeg 3.315730 -0.000000 -0.000000
RightFoot -9.402548 1.879844 -12.919946
RightToeBase -1.197603 -0.000000 0.000000
3679
root -6.087846 32.714533 -4.406005 15.381280 -7.527253 -3.450333
Spine -22.191105 -5.701983 6.662374
Head 14.151222 -4.184242 6.530299
LeftShoulder -8.849966 20.451029 9.846298
LeftArm 20.666803 24.583709 -75.629208
LeftForeArm -4.119366 -0.000000 20.549151
LeftHand -22.315505 -0.000000 -3.361889
LeftHandThumb1 -26.253704 0.000000 33.147579
RightShoulder -26.693067 11.251877 -14.070882
RightArm -43.965148 55.902596 49.487921
RightForeArm 45.594873 -0.000000 120.827252
RightHand -6.952894 -0.000000 -55.808617
RightHandThumb1 -24.326973 -0.000000 -32.862282
LeftUpLeg -9.193007 12.661002 4.220802
LeftLeg 0.911262 -0.000000 -0.000000
LeftFoot -16.031858 11.058728 -19.161226
LeftToeBase 9.624538 -0.000000 -0.000000
RightUpLeg -13.011446 -0.619277 -1.420668
RightLeg 3.304407 -0.000000 -0.000000
RightFoot -9.397976 1.887831 -12.939371
RightToeBase -1.191553 -0.000000 0.000000
